# xmcd
#
# Track frame offsets:
#	183
#	12175
#	31130
#	43493
#	56610
#	67558
#	80770
#	96285
#	110773
#	124915
#	135598
#	147508
#	159968
#	176738
#	188433
#	204553
#	217098
#	227953
#	239260
#	252930
#
# Disc length: 3558 seconds
#
# Revision: 11
# Processed by: cddbd v1.5.2PL0 Copyright (c) Steve Scherf et al.
# Submitted via: EZCDAudioConverter 8.0.7.1
#
DISCID=200de414
DTITLE=Nancy Sinatra - The Hits
DYEAR=1990
DGENRE=Adult Contemporary
TTITLE0=These Boots Are Made For Walking
TTITLE1=Summerwine (Nancy Sinatra feat. Lee Hazlewood) 
TTITLE2=Things (Nancy Sinatra feat. Dean Martin)
TTITLE3=Did You Ever
TTITLE4=Friday's Child
TTITLE5=You Only Live Twice
TTITLE6=Highway Song
TTITLE7=Elusive Dreams (Nancy Sinatra feat. Lee Hazlewood)
TTITLE8=Storybook Children (Nancy Sinatra feat. Lee Hazlewood)
TTITLE9=Sugar Town
TTITLE10=Something Stupid (Nancy Sinatra feat. Frank Sinatra)
TTITLE11=Jackson (Nancy Sinatra feat. Lee Hazlewood)
TTITLE12=Sand (Nancy Sinatra feat. Lee Hazlewood)
TTITLE13=Sundown, Sundown (Nancy Sinatra feat. Lee Hazlewood)
TTITLE14=Some Velvet Morning (Nancy Sinatra feat. Lee Hazlewood)
TTITLE15=I've Been Down So Long (Nancy Sinatra feat. Lee Hazlewood)
TTITLE16=Tony Rome
TTITLE17=How Does That Grab You, Darlin'
TTITLE18=Lady Bird (Nancy Sinatra feat. Lee Hazlewood)
TTITLE19=So Long Babe
EXTD=
EXTT0=
EXTT1=
EXTT2=
EXTT3=
EXTT4=
EXTT5=
EXTT6=
EXTT7=
EXTT8=
EXTT9=
EXTT10=
EXTT11=
EXTT12=
EXTT13=
EXTT14=
EXTT15=
EXTT16=
EXTT17=
EXTT18=
EXTT19=
PLAYORDER=
